<svg width="64" height="32" viewBox="0 0 64 32" fill="none" xmlns="http://www.w3.org/2000/svg">
<path d="M48 0C56.8366 5.79832e-07 64 7.16344 64 16C64 18.9143 63.2207 21.6466 61.8594 24C59.0929 19.2176 53.9222 16 48 16C48 21.9222 44.7824 27.0929 40 29.8594C37.571 28.4543 35.5457 26.429 34.1406 24C32.7793 26.3534 32 29.0857 32 32C32 29.0857 31.2207 26.3534 29.8594 24C28.4543 26.429 26.429 28.4543 24 29.8594C19.2176 27.0929 16 21.9222 16 16C10.0778 16 4.90711 19.2176 2.14062 24C0.779264 21.6466 6.37441e-08 18.9143 0 16C0 7.16344 7.16344 0 16 0C18.9143 6.37427e-08 21.6466 0.779264 24 2.14062C26.3534 0.779264 29.0857 0 32 0C34.9143 1.27488e-07 37.6466 0.779264 40 2.14062C42.3534 0.779264 45.0857 0 48 0ZM24 2.14062C19.2176 4.90711 16 10.0778 16 16C21.9222 16 27.0929 19.2176 29.8594 24C31.2207 21.6466 32 18.9143 32 16C32 10.0778 28.7824 4.90711 24 2.14062ZM40 2.14062C35.2176 4.90711 32 10.0778 32 16C32 18.9143 32.7793 21.6466 34.1406 24C36.9071 19.2176 42.0778 16 48 16C48 10.0778 44.7824 4.90711 40 2.14062Z" fill="#A30000"/>
</svg>
